<?xml version="1.0" encoding="utf-8"?>
<!-- Generator: Adobe Illustrator 16.0.0, SVG Export Plug-In . SVG Version: 6.00 Build 0)  -->
<!DOCTYPE svg PUBLIC "-//W3C//DTD SVG 1.1//EN" "http://www.w3.org/Graphics/SVG/1.1/DTD/svg11.dtd">
<svg version="1.1" id="Layer_1" xmlns="http://www.w3.org/2000/svg" xmlns:xlink="http://www.w3.org/1999/xlink" x="0px" y="0px"
	 width="841.89px" height="595.28px" viewBox="0 0 841.89 595.28" enable-background="new 0 0 841.89 595.28" xml:space="preserve">
<g>
	<g>
		<radialGradient id="SVGID_1_" cx="116.1563" cy="459.8936" r="630.0009" gradientUnits="userSpaceOnUse">
			<stop  offset="0" style="stop-color:#F9ED32"/>
			<stop  offset="0.0859" style="stop-color:#F8D83A"/>
			<stop  offset="0.2623" style="stop-color:#F5A24E"/>
			<stop  offset="0.351" style="stop-color:#F38559"/>
			<stop  offset="0.5151" style="stop-color:#F04F6D"/>
			<stop  offset="0.6184" style="stop-color:#EE2A7B"/>
			<stop  offset="0.7408" style="stop-color:#A32AA5"/>
			<stop  offset="0.9892" style="stop-color:#002AFF"/>
		</radialGradient>
		<path fill="url(#SVGID_1_)" d="M305.774,254.326c2.018,0,3.247,1.17,3.691,3.51c-0.524,1.735-6.516,17.046-17.973,45.932
			l0.605,35.4c-0.525,2.18-1.815,3.27-3.874,3.27c-2.299-0.525-3.449-1.635-3.449-3.33l-0.544-35.945
			c-9.603-27.716-14.645-42.521-15.129-44.418c0.484-2.218,1.694-3.33,3.631-3.33c2.219,0,3.771,1.999,4.66,5.992
			c0.685,1.896,4.599,13.232,11.739,34.009h-1.937c9.804-25.334,15.068-38.628,15.795-39.879
			C304.039,254.73,304.967,254.326,305.774,254.326z"/>
		<radialGradient id="SVGID_2_" cx="116.1543" cy="459.8936" r="630.0071" gradientUnits="userSpaceOnUse">
			<stop  offset="0" style="stop-color:#F9ED32"/>
			<stop  offset="0.0859" style="stop-color:#F8D83A"/>
			<stop  offset="0.2623" style="stop-color:#F5A24E"/>
			<stop  offset="0.351" style="stop-color:#F38559"/>
			<stop  offset="0.5151" style="stop-color:#F04F6D"/>
			<stop  offset="0.6184" style="stop-color:#EE2A7B"/>
			<stop  offset="0.7408" style="stop-color:#A32AA5"/>
			<stop  offset="0.9892" style="stop-color:#002AFF"/>
		</radialGradient>
		<path fill="url(#SVGID_2_)" d="M325.745,253.418c6.898,0,12.929,2.139,18.094,6.414c5.77,5.244,8.654,12.628,8.654,22.15v0.726
			c0,10.528-4.439,18.216-13.313,23.056c-5.286,2.662-11.297,3.994-18.034,3.994c-0.242,0-0.808-0.02-1.694-0.061v-0.363
			c0,16.137,0.161,26.082,0.484,29.834c0,1.574-1.13,2.662-3.39,3.27c-2.662,0-3.994-1.734-3.994-5.205
			c-0.241-3.549-0.362-12.727-0.362-27.535v-5.748c0-32.438,1.029-48.656,3.086-48.656
			C316.688,254.044,320.177,253.418,325.745,253.418z M319.572,304.068c0-0.684,0.564-1.006,1.694-0.967
			c12.022-0.283,19.525-4.296,22.512-12.044c0.968-2.5,1.452-5.405,1.452-8.714c0-11.173-4.054-18.194-12.164-21.06
			c-2.662-0.805-5.184-1.209-7.563-1.209h-4.841C319.936,265.28,319.572,279.943,319.572,304.068z"/>
		<radialGradient id="SVGID_3_" cx="116.1543" cy="459.8936" r="630.0071" gradientUnits="userSpaceOnUse">
			<stop  offset="0" style="stop-color:#F9ED32"/>
			<stop  offset="0.0859" style="stop-color:#F8D83A"/>
			<stop  offset="0.2623" style="stop-color:#F5A24E"/>
			<stop  offset="0.351" style="stop-color:#F38559"/>
			<stop  offset="0.5151" style="stop-color:#F04F6D"/>
			<stop  offset="0.6184" style="stop-color:#EE2A7B"/>
			<stop  offset="0.7408" style="stop-color:#A32AA5"/>
			<stop  offset="0.9892" style="stop-color:#002AFF"/>
		</radialGradient>
		<path fill="url(#SVGID_3_)" d="M364.111,253.297c2.259,0.525,3.389,1.635,3.389,3.33c0,9.278,0.08,36.813,0.242,82.602
			c-0.484,2.141-1.755,3.209-3.813,3.209c-2.3-0.525-3.449-1.635-3.449-3.33c0-9.279-0.081-36.814-0.242-82.603
			C360.723,254.366,362.013,253.297,364.111,253.297z"/>
		<radialGradient id="SVGID_4_" cx="116.1597" cy="459.8936" r="629.9963" gradientUnits="userSpaceOnUse">
			<stop  offset="0" style="stop-color:#F9ED32"/>
			<stop  offset="0.0859" style="stop-color:#F8D83A"/>
			<stop  offset="0.2623" style="stop-color:#F5A24E"/>
			<stop  offset="0.351" style="stop-color:#F38559"/>
			<stop  offset="0.5151" style="stop-color:#F04F6D"/>
			<stop  offset="0.6184" style="stop-color:#EE2A7B"/>
			<stop  offset="0.7408" style="stop-color:#A32AA5"/>
			<stop  offset="0.9892" style="stop-color:#002AFF"/>
		</radialGradient>
		<path fill="url(#SVGID_4_)" d="M384.021,287.126c2.179,0,3.389,1.271,3.631,3.811v-1.088h-1.937
			c1.896-1.816,4.357-2.723,7.383-2.723c3.349,0,6.657,1.23,9.925,3.691c0.646,0.523,1.21,1.07,1.694,1.632h-1.513
			c2.622-3.549,5.95-5.323,9.985-5.323c3.872,0,7.563,1.574,11.073,4.719c3.752,3.914,5.629,12.224,5.629,24.933
			c0,4.275,0.08,11.701,0.242,22.27c-0.404,2.26-1.615,3.391-3.631,3.391c-1.979,0-3.189-1.131-3.631-3.391
			c-0.162-22.512-0.445-33.768-0.848-33.768c-0.768-3.791-1.434-6.213-1.998-7.261c-1.693-2.783-4.014-4.178-6.958-4.178
			c-2.099,0-3.793,1.616-5.084,4.844c1.25,4.921,1.876,9.862,1.876,14.823v2.605c0,4.639,0.081,12.283,0.242,22.934
			c-0.444,2.26-1.654,3.391-3.631,3.391c-2.018,0-3.228-1.131-3.631-3.391c-0.161-9.963-0.242-17.508-0.242-22.633v-2.541
			c0-8.512-1.291-14.424-3.873-17.731c-1.775-1.532-3.691-2.301-5.749-2.301s-3.792,1.738-5.204,5.205
			c0,7.747,0.08,21.06,0.242,39.94c-0.484,2.139-1.755,3.209-3.813,3.209c-2.3-0.525-3.449-1.635-3.449-3.33l-0.363-48.473
			C380.874,288.214,382.084,287.126,384.021,287.126z"/>
		<radialGradient id="SVGID_5_" cx="116.1533" cy="459.8926" r="630.0071" gradientUnits="userSpaceOnUse">
			<stop  offset="0" style="stop-color:#F9ED32"/>
			<stop  offset="0.0859" style="stop-color:#F8D83A"/>
			<stop  offset="0.2623" style="stop-color:#F5A24E"/>
			<stop  offset="0.351" style="stop-color:#F38559"/>
			<stop  offset="0.5151" style="stop-color:#F04F6D"/>
			<stop  offset="0.6184" style="stop-color:#EE2A7B"/>
			<stop  offset="0.7408" style="stop-color:#A32AA5"/>
			<stop  offset="0.9892" style="stop-color:#002AFF"/>
		</radialGradient>
		<path fill="url(#SVGID_5_)" d="M455.489,286.701c4.719,0,9.52,2.946,14.402,8.835c0.645,0,1.27,14.04,1.875,42.12
			c-0.482,2.178-1.693,3.268-3.631,3.268c-2.418,0-3.631-1.572-3.631-4.721c-0.08-0.766-0.162-3.57-0.24-8.41
			c1.611,0,2.016,1.17,1.209,3.51c-2.744,5.486-6.031,8.936-9.863,10.348c-1.777,0.523-3.188,0.787-4.236,0.787h-0.605
			c-5.566,0-9.359-3.873-11.377-11.619c-0.564-3.146-0.848-6.375-0.848-9.684c0-9.963,1.695-18.559,5.084-25.78
			C446.694,289.587,450.647,286.701,455.489,286.701z M445.806,321.379c0.121,8.105,1.414,12.807,3.875,14.098
			c0.443,0.203,0.967,0.305,1.572,0.305c5.93,0,9.842-8.715,11.74-26.145c0.363-4.518,0.545-8.148,0.545-10.892
			c-3.229-3.592-5.932-5.387-8.109-5.387c-3.672,0-6.518,5.226-8.533,15.675C446.169,313.752,445.806,317.865,445.806,321.379z"/>
		<radialGradient id="SVGID_6_" cx="116.1543" cy="459.8955" r="630.0082" gradientUnits="userSpaceOnUse">
			<stop  offset="0" style="stop-color:#F9ED32"/>
			<stop  offset="0.0859" style="stop-color:#F8D83A"/>
			<stop  offset="0.2623" style="stop-color:#F5A24E"/>
			<stop  offset="0.351" style="stop-color:#F38559"/>
			<stop  offset="0.5151" style="stop-color:#F04F6D"/>
			<stop  offset="0.6184" style="stop-color:#EE2A7B"/>
			<stop  offset="0.7408" style="stop-color:#A32AA5"/>
			<stop  offset="0.9892" style="stop-color:#002AFF"/>
		</radialGradient>
		<path fill="url(#SVGID_6_)" d="M498.093,287.187h0.361c4.762,0,9.141,2.763,13.133,8.289c1.049,0,1.574,7.403,1.574,22.21
			c0,15.211-1.17,24.51-3.51,27.896c-0.443,1.818-2.34,4.336-5.689,7.566c-2.863,2.422-6.414,4.113-10.65,5.084
			c-2.541-0.484-3.813-1.615-3.813-3.389c0-1.938,1.775-3.27,5.324-3.996c6.98-2.904,10.471-9.361,10.471-19.363v0.967h2.48
			c-2.018,4.561-4.922,7.586-8.715,9.078c-1.492,0.564-2.723,0.848-3.691,0.848h-1.148c-5.367,0-9.402-2.965-12.104-8.896
			c-1.451-3.873-2.178-8.088-2.178-12.648c0-14.848,4.174-25.478,12.525-31.892C494.925,287.771,496.802,287.187,498.093,287.187z
			 M487.2,320.953c0.242,7.223,1.674,11.822,4.297,13.797c0.766,0.605,1.773,0.91,3.025,0.91h0.846c1.09,0,2.359-0.867,3.813-2.605
			c1.332-1.652,2.441-4.031,3.33-7.139c2.016-6.414,3.025-15.191,3.025-26.324c0-0.929-1.354-2.503-4.055-4.721
			c-1.088-0.687-2.141-1.03-3.146-1.03c-2.625,0-5.529,3.531-8.715,10.591C488.005,309.314,487.2,314.82,487.2,320.953z"/>
		<radialGradient id="SVGID_7_" cx="116.1421" cy="459.8936" r="630.0241" gradientUnits="userSpaceOnUse">
			<stop  offset="0" style="stop-color:#F9ED32"/>
			<stop  offset="0.0859" style="stop-color:#F8D83A"/>
			<stop  offset="0.2623" style="stop-color:#F5A24E"/>
			<stop  offset="0.351" style="stop-color:#F38559"/>
			<stop  offset="0.5151" style="stop-color:#F04F6D"/>
			<stop  offset="0.6184" style="stop-color:#EE2A7B"/>
			<stop  offset="0.7408" style="stop-color:#A32AA5"/>
			<stop  offset="0.9892" style="stop-color:#002AFF"/>
		</radialGradient>
		<path fill="url(#SVGID_7_)" d="M536.521,287.126h1.088c4.156,0,8.129,2.3,11.922,6.897c2.541,3.874,4.215,8.17,5.021,12.889
			l0.123,1.453v0.668c0,2.057-1.092,3.488-3.27,4.297c-4.719,0.844-11.658,1.473-20.816,1.873c-1.209,0.041-1.836,0.063-1.877,0.063
			v2.117c0,5.932,1.352,10.975,4.055,15.129c1.816,2.178,3.975,3.27,6.475,3.27c2.623,0,5.428-1.674,8.412-5.023l1.635-0.426
			c2.139,0,3.43,1.131,3.873,3.391c0,2.141-2.844,4.721-8.531,7.746c-1.615,0.645-3.492,0.969-5.629,0.969
			c-5.689,0-10.33-2.965-13.92-8.896c-2.42-5.123-3.631-10.389-3.631-15.795v-2.725c0-5.566,1.25-11.637,3.752-18.215
			C528.31,290.353,532.081,287.126,536.521,287.126z M529.196,308.607h-1.451c9.602-0.443,16.115-0.887,19.545-1.33
			c0-0.283-0.039-0.424-0.121-0.424c-0.564-2.824-1.189-4.822-1.875-5.99c-2.34-4.68-5.021-7.022-8.049-7.022h-0.484
			c-2.703,0-5.043,4.257-7.02,12.771C529.38,308.268,529.196,308.932,529.196,308.607z"/>
		<radialGradient id="SVGID_8_" cx="116.1533" cy="459.8936" r="630.0079" gradientUnits="userSpaceOnUse">
			<stop  offset="0" style="stop-color:#F9ED32"/>
			<stop  offset="0.0859" style="stop-color:#F8D83A"/>
			<stop  offset="0.2623" style="stop-color:#F5A24E"/>
			<stop  offset="0.351" style="stop-color:#F38559"/>
			<stop  offset="0.5151" style="stop-color:#F04F6D"/>
			<stop  offset="0.6184" style="stop-color:#EE2A7B"/>
			<stop  offset="0.7408" style="stop-color:#A32AA5"/>
			<stop  offset="0.9892" style="stop-color:#002AFF"/>
		</radialGradient>
		<path fill="url(#SVGID_8_)" d="M574.403,253.418c6.896,0,12.928,2.139,18.094,6.414c5.766,5.244,8.652,12.628,8.652,22.15v0.726
			c0,10.528-4.439,18.216-13.314,23.056c-5.283,2.662-11.297,3.994-18.033,3.994c-0.242,0-0.807-0.02-1.695-0.061v-0.363
			c0,16.137,0.162,26.082,0.486,29.834c0,1.574-1.131,2.662-3.391,3.27c-2.662,0-3.992-1.734-3.992-5.205
			c-0.242-3.549-0.365-12.727-0.365-27.535v-5.748c0-32.438,1.031-48.656,3.088-48.656
			C565.345,254.044,568.833,253.418,574.403,253.418z M568.229,304.068c0-0.684,0.564-1.006,1.695-0.967
			c12.02-0.283,19.523-4.296,22.512-12.044c0.969-2.5,1.451-5.405,1.451-8.714c0-11.173-4.057-18.194-12.162-21.06
			c-2.664-0.805-5.188-1.209-7.566-1.209h-4.84C568.593,265.28,568.229,279.943,568.229,304.068z"/>
		<radialGradient id="SVGID_9_" cx="116.1543" cy="459.8936" r="630.0079" gradientUnits="userSpaceOnUse">
			<stop  offset="0" style="stop-color:#F9ED32"/>
			<stop  offset="0.0859" style="stop-color:#F8D83A"/>
			<stop  offset="0.2623" style="stop-color:#F5A24E"/>
			<stop  offset="0.351" style="stop-color:#F38559"/>
			<stop  offset="0.5151" style="stop-color:#F04F6D"/>
			<stop  offset="0.6184" style="stop-color:#EE2A7B"/>
			<stop  offset="0.7408" style="stop-color:#A32AA5"/>
			<stop  offset="0.9892" style="stop-color:#002AFF"/>
		</radialGradient>
		<path fill="url(#SVGID_9_)" d="M609.925,278.773c2.178,0,3.469,1.252,3.873,3.753c-0.605,2.5-2.037,3.752-4.297,3.752
			c-2.459-0.483-3.691-1.714-3.691-3.691C606.374,280.044,607.747,278.773,609.925,278.773z M610.228,287.126
			c2.299,0.523,3.449,1.632,3.449,3.327l0.242,48.775c-0.484,2.141-1.775,3.209-3.873,3.209c-2.26-0.525-3.389-1.635-3.389-3.33
			l-0.244-48.715C606.899,288.214,608.171,287.126,610.228,287.126z"/>
		<radialGradient id="SVGID_10_" cx="116.1387" cy="459.8926" r="630.025" gradientUnits="userSpaceOnUse">
			<stop  offset="0" style="stop-color:#F9ED32"/>
			<stop  offset="0.0859" style="stop-color:#F8D83A"/>
			<stop  offset="0.2623" style="stop-color:#F5A24E"/>
			<stop  offset="0.351" style="stop-color:#F38559"/>
			<stop  offset="0.5151" style="stop-color:#F04F6D"/>
			<stop  offset="0.6184" style="stop-color:#EE2A7B"/>
			<stop  offset="0.7408" style="stop-color:#A32AA5"/>
			<stop  offset="0.9892" style="stop-color:#002AFF"/>
		</radialGradient>
		<path fill="url(#SVGID_10_)" d="M649.804,286.701h0.848c3.59,0,5.387,1.19,5.387,3.57c-0.566,2.139-1.756,3.208-3.57,3.208
			c-1.211-0.079-2.08-0.121-2.604-0.121c-8.555,0.282-14.303,4.014-17.248,11.196c-1.693,3.713-2.541,8.492-2.541,14.342
			c0,11.254,3.793,16.885,11.377,16.885c2.34,0,5.527-0.688,9.563-2.059c2.5,0.566,3.752,1.693,3.752,3.389
			c0,2.34-3.066,3.992-9.199,4.963c-1.17,0.242-2.582,0.363-4.236,0.363c-8.229,0-13.838-3.994-16.822-11.982
			c-1.131-3.027-1.695-6.92-1.695-11.68c0-15.574,5.689-25.679,17.066-30.318C643.187,287.287,646.495,286.701,649.804,286.701z"/>
		<radialGradient id="SVGID_11_" cx="116.1377" cy="459.8936" r="630.0253" gradientUnits="userSpaceOnUse">
			<stop  offset="0" style="stop-color:#F9ED32"/>
			<stop  offset="0.0859" style="stop-color:#F8D83A"/>
			<stop  offset="0.2623" style="stop-color:#F5A24E"/>
			<stop  offset="0.351" style="stop-color:#F38559"/>
			<stop  offset="0.5151" style="stop-color:#F04F6D"/>
			<stop  offset="0.6184" style="stop-color:#EE2A7B"/>
			<stop  offset="0.7408" style="stop-color:#A32AA5"/>
			<stop  offset="0.9892" style="stop-color:#002AFF"/>
		</radialGradient>
		<path fill="url(#SVGID_11_)" d="M664.024,253.297c2.018,0,3.229,1.111,3.631,3.33c0.082,31.991-0.24,47.502-0.967,46.535
			c12.586-9.926,19.646-15.35,21.18-16.279c0.242,0,0.645-0.039,1.211-0.121c2.42,0.565,3.631,1.695,3.631,3.391
			c0,1.291-1.635,3.005-4.902,5.142l-17.488,13.858c13.998,17.188,21.703,26.689,23.117,28.504l0.182,1.15
			c-0.484,2.18-1.695,3.268-3.631,3.268c-1.494,0-3.41-1.654-5.75-4.963L665.599,314.6h2.18c0.08,4.641,0.121,8.371,0.121,11.193
			v12.893c-0.244,2.5-1.514,3.752-3.813,3.752c-2.301-0.525-3.451-1.635-3.451-3.33c0-9.279-0.078-36.814-0.242-82.603
			C660.878,254.366,662.089,253.297,664.024,253.297z"/>
		<radialGradient id="SVGID_12_" cx="116.1367" cy="459.8936" r="630.0255" gradientUnits="userSpaceOnUse">
			<stop  offset="0" style="stop-color:#F9ED32"/>
			<stop  offset="0.0859" style="stop-color:#F8D83A"/>
			<stop  offset="0.2623" style="stop-color:#F5A24E"/>
			<stop  offset="0.351" style="stop-color:#F38559"/>
			<stop  offset="0.5151" style="stop-color:#F04F6D"/>
			<stop  offset="0.6184" style="stop-color:#EE2A7B"/>
			<stop  offset="0.7408" style="stop-color:#A32AA5"/>
			<stop  offset="0.9892" style="stop-color:#002AFF"/>
		</radialGradient>
		<path fill="url(#SVGID_12_)" d="M708.323,287.126h1.088c4.154,0,8.129,2.3,11.922,6.897c2.541,3.874,4.215,8.17,5.021,12.889
			l0.123,1.453v0.668c0,2.057-1.09,3.488-3.268,4.297c-4.721,0.844-11.66,1.473-20.818,1.873c-1.211,0.041-1.836,0.063-1.877,0.063
			v2.117c0,5.932,1.354,10.975,4.055,15.129c1.816,2.178,3.973,3.27,6.475,3.27c2.623,0,5.426-1.674,8.412-5.023l1.635-0.426
			c2.139,0,3.428,1.131,3.873,3.391c0,2.141-2.844,4.721-8.533,7.746c-1.613,0.645-3.49,0.969-5.627,0.969
			c-5.689,0-10.33-2.965-13.92-8.896c-2.42-5.123-3.631-10.389-3.631-15.795v-2.725c0-5.566,1.252-11.637,3.752-18.215
			C700.11,290.353,703.884,287.126,708.323,287.126z M700.999,308.607h-1.451c9.602-0.443,16.117-0.887,19.545-1.33
			c0-0.283-0.041-0.424-0.121-0.424c-0.564-2.824-1.189-4.822-1.875-5.99c-2.34-4.68-5.023-7.022-8.049-7.022h-0.484
			c-2.703,0-5.043,4.257-7.02,12.771C701.181,308.268,700.999,308.932,700.999,308.607z"/>
		<radialGradient id="SVGID_13_" cx="116.1738" cy="459.8936" r="629.9886" gradientUnits="userSpaceOnUse">
			<stop  offset="0" style="stop-color:#F9ED32"/>
			<stop  offset="0.0859" style="stop-color:#F8D83A"/>
			<stop  offset="0.2623" style="stop-color:#F5A24E"/>
			<stop  offset="0.351" style="stop-color:#F38559"/>
			<stop  offset="0.5151" style="stop-color:#F04F6D"/>
			<stop  offset="0.6184" style="stop-color:#EE2A7B"/>
			<stop  offset="0.7408" style="stop-color:#A32AA5"/>
			<stop  offset="0.9892" style="stop-color:#002AFF"/>
		</radialGradient>
		<path fill="url(#SVGID_13_)" d="M736.522,287.126c2.178,0,3.389,1.271,3.631,3.811v-0.483h-1.695
			c2.865-1.975,6.658-2.965,11.379-2.965c3.871,0,7.604,2.017,11.193,6.052c2.299,3.349,3.449,5.587,3.449,6.718
			c-0.443,2.219-1.654,3.326-3.631,3.326c-1.814,0-3.348-1.572-4.598-4.718c-2.1-3.147-4.338-4.722-6.719-4.722
			c-4.236,0-7.281,1.271-9.137,3.813c-0.082,0.121-0.121,0.14-0.121,0.061c0,4.923,0.121,18.659,0.363,41.21
			c-0.484,2.141-1.775,3.209-3.873,3.209c-2.26-0.525-3.389-1.635-3.389-3.33l-0.484-48.715
			C733.376,288.214,734.587,287.126,736.522,287.126z"/>
	</g>
	<g>
		
			<radialGradient id="SVGID_14_" cx="146.958" cy="246.8594" r="227.9937" fx="194.6133" fy="268.7036" gradientTransform="matrix(-0.8149 -0.5797 0.4707 -0.6617 150.5171 495.3832)" gradientUnits="userSpaceOnUse">
			<stop  offset="0" style="stop-color:#F9ED32"/>
			<stop  offset="0.0873" style="stop-color:#F8D83A"/>
			<stop  offset="0.2679" style="stop-color:#F5A24E"/>
			<stop  offset="0.524" style="stop-color:#F04C6E"/>
			<stop  offset="0.6184" style="stop-color:#EE2A7B"/>
			<stop  offset="0.7408" style="stop-color:#A32AA5"/>
			<stop  offset="0.9892" style="stop-color:#002AFF"/>
		</radialGradient>
		<path fill="url(#SVGID_14_)" d="M129.538,297.477l-1.611,7.636l-8.545-7.341l-4.088,9.761l-13.772-10.39l-10.699,8.264
			l-4.023-8.185l-9.389,10.89v40.063c0,19.057,15.445,34.502,34.504,34.502h47.569l-4.02-55.204L129.538,297.477z"/>
		
			<radialGradient id="SVGID_15_" cx="146.957" cy="246.8599" r="227.994" fx="194.6124" fy="268.7042" gradientTransform="matrix(-0.8149 -0.5797 0.4707 -0.6617 150.5151 495.3835)" gradientUnits="userSpaceOnUse">
			<stop  offset="0" style="stop-color:#F9ED32"/>
			<stop  offset="0.0873" style="stop-color:#F8D83A"/>
			<stop  offset="0.2679" style="stop-color:#F5A24E"/>
			<stop  offset="0.524" style="stop-color:#F04C6E"/>
			<stop  offset="0.6184" style="stop-color:#EE2A7B"/>
			<stop  offset="0.7408" style="stop-color:#A32AA5"/>
			<stop  offset="0.9892" style="stop-color:#002AFF"/>
		</radialGradient>
		<path fill="url(#SVGID_15_)" d="M236.816,309.11l-13.706-12.539l-6.831,12.82l-10.616-11.796l-8.521,10.619l-3.315-8.973
			l-24.398,28.229l-4.02,55.204h47.572c19.056,0,34.502-15.445,34.502-34.502v-40.062l-5.849-6.787L236.816,309.11z"/>
		
			<radialGradient id="SVGID_16_" cx="146.958" cy="246.8599" r="227.9933" fx="194.6132" fy="268.7041" gradientTransform="matrix(-0.8149 -0.5797 0.4707 -0.6617 150.5169 495.3841)" gradientUnits="userSpaceOnUse">
			<stop  offset="0" style="stop-color:#F9ED32"/>
			<stop  offset="0.0873" style="stop-color:#F8D83A"/>
			<stop  offset="0.2679" style="stop-color:#F5A24E"/>
			<stop  offset="0.524" style="stop-color:#F04C6E"/>
			<stop  offset="0.6184" style="stop-color:#EE2A7B"/>
			<stop  offset="0.7408" style="stop-color:#A32AA5"/>
			<stop  offset="0.9892" style="stop-color:#002AFF"/>
		</radialGradient>
		<path fill="url(#SVGID_16_)" d="M162.444,315.1l54.42-47.032l30.619,26.393l0,0v-47.351c0-19.058-15.446-34.505-34.502-34.505
			H111.914c-19.059,0-34.504,15.447-34.504,34.505v47.351l30.619-26.393L162.444,315.1z M140.272,227.638
			c9.539,0,17.3,7.759,17.3,17.296c0,9.54-7.761,17.302-17.3,17.302c-9.538,0-17.297-7.762-17.297-17.302
			C122.976,235.396,130.734,227.638,140.272,227.638z"/>
		<path fill="#FFFFFF" d="M140.272,262.235c9.539,0,17.3-7.762,17.3-17.302c0-9.537-7.761-17.296-17.3-17.296
			c-9.538,0-17.297,7.759-17.297,17.296C122.976,254.474,130.734,262.235,140.272,262.235z"/>
		<polygon fill="#FFFFFF" points="247.483,294.46 216.864,268.067 162.444,315.1 108.029,268.067 77.41,294.46 77.41,308.111 
			86.799,297.222 90.822,305.406 101.521,297.143 115.294,307.532 119.382,297.771 127.927,305.112 129.538,297.477 
			155.464,327.472 159.483,382.676 165.409,382.676 169.429,327.472 193.827,299.242 197.143,308.215 205.663,297.596 
			216.279,309.392 223.11,296.571 236.816,309.11 241.635,301.325 247.483,308.112 247.483,308.112 		"/>
	</g>
</g>
</svg>
